<?xml version="1.0" encoding="iso-8859-1"?>
<!-- Uploaded to: SVG Repo, www.svgrepo.com, Generator: SVG Repo Mixer Tools -->
<svg version="1.1" id="Layer_1" xmlns="http://www.w3.org/2000/svg" xmlns:xlink="http://www.w3.org/1999/xlink" 
	 viewBox="0 0 512 512" xml:space="preserve">
<circle style="fill:#FBB03B;" cx="112.231" cy="144.073" r="15.975"/>
<circle style="fill:#F15A24;" cx="415.748" cy="184.005" r="15.975"/>
<path style="fill:#F7931E;" d="M192.101,263.885v-87.861c0-30.879,25.032-55.912,55.912-55.912l0,0v103.836
	c0,0-5.224,45.795-55.912,47.924V263.885z"/>
<g>
	<path style="fill:#FBB03B;" d="M216.131,263.885v-87.861c0-22.292,12.59-41.479,31.475-50.459v-5.453
		c-30.426,0-55.607,25.032-55.607,55.912v87.861v7.987c9.443-0.399,17.836-2.33,24.131-5.206V263.885z"/>
	<path style="fill:#FBB03B;" d="M375.607,271.872c0,66.17-53.437,119.811-119.607,119.811s-119.607-53.641-119.607-119.811V215.96
		c0,30.879,24.727,55.912,55.607,55.912s55.607-25.032,55.607-55.912V40.493h4.399c68.376,0,123.601,56.961,123.601,127.543V271.872
		z"/>
</g>
<path style="fill:#F7931E;" d="M252.006,40.493h-4.399v8.177c47.213,18.313,80.787,64.777,80.787,119.365v103.836
	c0,57.962-41.416,106.303-96.103,117.405c7.744,1.573,15.526,2.406,23.734,2.406c66.17,0,119.582-53.641,119.582-119.811V168.036
	C375.607,97.454,320.382,40.493,252.006,40.493z"/>
<circle style="fill:#F15A24;" cx="256" cy="335.769" r="55.911"/>
<circle style="fill:#ED1C24;" cx="256" cy="359.732" r="31.95"/>
<circle style="fill:#C1272D;" cx="256" cy="375.711" r="15.975"/>
<rect x="248.016" y="391.68" style="fill:#998675;" width="175.727" height="111.822"/>
<g>
	<circle style="fill:#C69C6D;" cx="423.732" cy="447.591" r="55.911"/>
	<path style="fill:#C69C6D;" d="M80.787,391.969h151.251c30.879,0,55.912,24.727,55.912,55.607s-25.032,55.607-55.912,55.607H80.787
		"/>
</g>
<circle style="fill:#C7B299;" cx="423.732" cy="447.591" r="31.95"/>
<circle style="fill:#998675;" cx="80.273" cy="447.591" r="55.911"/>
<circle style="fill:#C7B299;" cx="80.273" cy="447.591" r="31.95"/>
<rect x="176.262" y="431.843" width="48.262" height="15.738"/>
<rect x="224.525" y="407.711" width="15.738" height="15.738"/>
<rect x="136.393" y="455.974" width="15.738" height="15.738"/>
<rect x="152.131" y="471.711" width="24.131" height="15.738"/>
<path d="M80.277,487.414c-21.956,0-39.818-17.862-39.818-39.818c0-21.956,17.862-39.818,39.818-39.818s39.818,17.862,39.818,39.818
	C120.095,469.55,102.232,487.414,80.277,487.414z M80.277,423.514c-13.278,0-24.081,10.802-24.081,24.081
	c0,13.278,10.802,24.081,24.081,24.081s24.081-10.802,24.081-24.081S93.555,423.514,80.277,423.514z"/>
<rect x="72.393" y="440.236" width="15.738" height="15.738"/>
<rect x="328.393" y="471.711" width="23.082" height="15.738"/>
<path d="M423.736,487.414c-21.956,0-39.818-17.862-39.818-39.818c0-21.956,17.862-39.818,39.818-39.818s39.818,17.862,39.818,39.818
	C463.554,469.55,445.692,487.414,423.736,487.414z M423.736,423.514c-13.278,0-24.081,10.802-24.081,24.081
	c0,13.278,10.802,24.081,24.081,24.081s24.081-10.802,24.081-24.081C447.816,434.317,437.014,423.514,423.736,423.514z"/>
<rect x="415.475" y="440.236" width="15.738" height="15.738"/>
<path d="M423.745,383.814L423.745,383.814l-106.009-0.127C357.208,361.916,384,319.959,384,271.872V168.036
	C384,93.081,324.788,32.1,252.006,32.1h-11.743v80.63c-31.525,3.839-56.03,30.748-56.03,63.293v87.212
	c-22.931-3.771-40.494-23.905-40.494-47.528H128v56.166c0,48.049,26.75,89.977,66.171,111.763l-113.906,0.179l0,0
	c-35.163,0.006-63.768,28.615-63.768,63.781s28.606,63.774,63.77,63.781l0,0h343.476l0,0c35.165-0.004,63.773-28.614,63.773-63.781
	S458.909,383.82,423.745,383.814z M199.97,176.022c0-23.852,17.475-43.692,40.293-47.409v87.346
	c0,23.788-17.462,43.48-40.293,47.253L199.97,176.022L199.97,176.022z M143.738,271.872v-14.066
	c11.741,13.434,29.023,21.935,48.262,21.935c35.29,0,64-28.611,64-63.781V47.908c62.26,2.185,112.262,55.234,112.262,120.128
	v103.836c0,59.544-46.867,108.373-105.748,111.749l-13.279-0.016C190.471,380.104,143.738,331.331,143.738,271.872z M80.277,495.638
	c-26.491,0-48.043-21.552-48.043-48.043c0-26.491,21.552-48.043,48.043-48.043s48.043,21.552,48.043,48.043
	C128.32,474.086,106.768,495.638,80.277,495.638z M232.963,495.814l-8.439,0.007V480.1h-16.787v15.705l-85.645-0.112
	c13.442-11.703,21.964-28.919,21.964-48.098c0-5.437-0.687-10.715-1.974-15.758h34.179V416.1h-40.558
	c-3.584-6.283-8.2-11.896-13.624-16.614l106.704-0.168l3.624,0.004c26.32,0.202,47.672,21.766,47.672,48.253
	c0,2.864-0.263,5.666-0.742,8.393H256v15.738h17.618C265.443,485.868,250.317,495.486,232.963,495.814z M273.926,495.776
	c13.401-11.741,21.892-28.989,21.892-48.201s-8.492-36.462-21.896-48.204l107.991,0.129c-5.415,4.715-10.026,10.323-13.605,16.598
	h-39.915v15.738h33.535c-1.286,5.041-1.974,10.321-1.974,15.758c0,2.84,0.206,5.631,0.568,8.374h-9.047v15.738h13.227
	c3.806,9.286,9.743,17.475,17.198,23.97L273.926,495.776z M423.736,495.638c-26.491,0-48.043-21.552-48.043-48.043
	c0-26.491,21.552-48.043,48.043-48.043c26.491,0,48.043,21.552,48.043,48.043C471.779,474.086,450.226,495.638,423.736,495.638z"/>
<path d="M112.227,167.917c-13.147,0-23.844-10.696-23.844-23.844c0-13.147,10.695-23.844,23.844-23.844
	c13.147,0,23.845,10.696,23.845,23.844C136.07,157.221,125.374,167.917,112.227,167.917z M112.227,135.967
	c-4.47,0-8.106,3.636-8.106,8.106s3.636,8.106,8.106,8.106c4.471,0,8.107-3.636,8.107-8.106
	C120.333,139.604,116.697,135.967,112.227,135.967z"/>
<rect x="128" y="88.75" style="fill:#ED1C24;" width="15.738" height="15.738"/>
<polygon style="fill:#FBB03B;" points="472.131,319.575 455.344,319.575 455.344,303.837 439.607,303.837 439.607,319.575 
	423.869,319.575 423.869,335.313 439.607,335.313 439.607,352.1 455.344,352.1 455.344,335.313 472.131,335.313 "/>
<polygon style="fill:#ED1C24;" points="455.344,16.362 439.607,16.362 439.607,0.624 423.869,0.624 423.869,16.362 408.131,16.362 
	408.131,32.1 423.869,32.1 423.869,47.837 439.607,47.837 439.607,32.1 455.344,32.1 "/>
<g>
	<polygon style="fill:#F15A24;" points="48.262,295.444 32.525,295.444 32.525,279.706 16.787,279.706 16.787,295.444 0,295.444 
		0,311.182 16.787,311.182 16.787,327.969 32.525,327.969 32.525,311.182 48.262,311.182 	"/>
	<rect x="472.131" y="352.105" style="fill:#F15A24;" width="15.738" height="15.738"/>
</g>
<rect x="495.213" y="272.367" style="fill:#ED1C24;" width="16.787" height="15.738"/>
<rect x="48.262" y="120.226" style="fill:#F15A24;" width="15.738" height="15.738"/>
<g>
	<rect x="64" y="40.493" style="fill:#FBB03B;" width="16.787" height="15.738"/>
	<rect x="375.607" y="40.493" style="fill:#FBB03B;" width="15.738" height="15.738"/>
</g>
<rect x="415.475" y="80.357" style="fill:#F15A24;" width="15.738" height="15.738"/>
<path d="M415.748,207.854c-13.147,0-23.844-10.696-23.844-23.844c0-13.147,10.695-23.844,23.844-23.844
	c13.147,0,23.845,10.696,23.845,23.844C439.592,197.158,428.895,207.854,415.748,207.854z M415.748,175.905
	c-4.47,0-8.106,3.636-8.106,8.106c0,4.469,3.636,8.106,8.106,8.106c4.471,0,8.107-3.636,8.107-8.106
	C423.854,179.54,420.219,175.905,415.748,175.905z"/>
<rect x="56.656" y="336.367" style="fill:#FBB03B;" width="15.738" height="15.738"/>
<rect x="80.787" y="312.236" style="fill:#ED1C24;" width="15.738" height="15.738"/>
</svg>